<svg width="463" height="289" viewBox="0 0 463 289" fill="none" xmlns="http://www.w3.org/2000/svg">
<g filter="url(#filter0_d_18_106)">
<path d="M74.8838 128.49C71.0944 128.49 66.8151 128.163 62.0458 127.51C59.4324 127.183 57.6358 126.497 56.6558 125.452C55.6758 124.407 55.2511 122.708 55.3818 120.356C55.8391 113.888 56.9171 105.917 58.6158 96.444C60.3144 86.9053 62.3724 77.726 64.7898 68.906C65.2471 67.2727 66.1618 66.1293 67.5338 65.476C68.9058 64.8227 70.7024 64.496 72.9238 64.496C76.9091 64.496 78.9018 65.6067 78.9018 67.828C78.9018 68.7427 78.7058 69.788 78.3138 70.964C76.6151 76.1907 74.9164 83.214 73.2178 92.034C71.5191 100.789 70.3104 109.151 69.5918 117.122C71.5518 117.318 73.7731 117.416 76.2558 117.416C87.6891 117.416 96.2151 113.953 101.834 107.028C107.518 100.103 110.36 90.858 110.36 79.294C110.36 71.5193 108.138 65.5087 103.696 61.262C99.2531 57.0153 92.9811 54.892 84.8798 54.892C79.6531 54.892 74.4591 55.7087 69.2978 57.342C64.2018 58.9753 59.5958 61.1313 55.4798 63.81C54.6304 64.398 53.7158 64.692 52.7358 64.692C51.6251 64.692 50.7431 64.2347 50.0898 63.32C49.4364 62.34 49.1098 61.164 49.1098 59.792C49.1098 58.224 49.3711 56.95 49.8938 55.97C50.4164 54.9247 51.2984 53.9773 52.5398 53.128C57.0478 50.0573 62.3398 47.738 68.4158 46.17C74.4918 44.5367 80.3391 43.72 85.9578 43.72C93.9284 43.72 100.821 45.1247 106.636 47.934C112.45 50.678 116.926 54.7287 120.062 60.086C123.198 65.4433 124.766 71.9113 124.766 79.49C124.766 89.3553 122.806 97.9793 118.886 105.362C114.966 112.679 109.249 118.363 101.736 122.414C94.2224 126.465 85.2718 128.49 74.8838 128.49ZM181.306 97.914C182.155 97.914 182.808 98.3387 183.266 99.188C183.723 100.037 183.952 101.115 183.952 102.422C183.952 105.558 183.004 107.42 181.11 108.008C177.19 109.38 172.878 110.164 168.174 110.36C166.932 115.848 164.482 120.258 160.824 123.59C157.165 126.857 153.016 128.49 148.378 128.49C144.458 128.49 141.093 127.543 138.284 125.648C135.54 123.753 133.449 121.238 132.012 118.102C130.574 114.966 129.856 111.569 129.856 107.91C129.856 102.945 130.803 98.5347 132.698 94.68C134.592 90.76 137.206 87.722 140.538 85.566C143.87 83.3447 147.561 82.234 151.612 82.234C156.577 82.234 160.562 83.9653 163.568 87.428C166.638 90.8253 168.435 95.0393 168.958 100.07C172.028 99.874 175.687 99.2207 179.934 98.11C180.456 97.9793 180.914 97.914 181.306 97.914ZM149.162 118.102C151.252 118.102 153.049 117.253 154.552 115.554C156.12 113.855 157.165 111.405 157.688 108.204C155.662 106.832 154.094 105.035 152.984 102.814C151.938 100.593 151.416 98.2407 151.416 95.758C151.416 94.7127 151.514 93.6673 151.71 92.622H151.22C148.606 92.622 146.418 93.896 144.654 96.444C142.955 98.9267 142.106 102.455 142.106 107.028C142.106 110.621 142.792 113.365 144.164 115.26C145.601 117.155 147.267 118.102 149.162 118.102ZM194.258 128.49C187.856 128.49 182.858 126.693 179.264 123.1C175.736 119.441 173.972 114.639 173.972 108.694C173.972 103.402 175.018 98.7633 177.108 94.778C179.199 90.7927 181.91 87.722 185.242 85.566C188.574 83.41 192.07 82.332 195.728 82.332C199.322 82.332 202.098 83.41 204.058 85.566C206.084 87.6567 207.096 90.368 207.096 93.7C207.096 96.444 206.476 98.7633 205.234 100.658C204.058 102.553 202.49 103.5 200.53 103.5C199.289 103.5 198.276 103.206 197.492 102.618C196.774 102.03 196.414 101.213 196.414 100.168C196.414 99.7107 196.48 99.188 196.61 98.6C196.741 98.012 196.839 97.5873 196.904 97.326C197.231 96.346 197.394 95.4313 197.394 94.582C197.394 93.7327 197.166 93.0793 196.708 92.622C196.316 92.1647 195.728 91.936 194.944 91.936C193.442 91.936 192.037 92.622 190.73 93.994C189.424 95.3007 188.378 97.0973 187.594 99.384C186.81 101.671 186.418 104.186 186.418 106.93C186.418 114.509 189.718 118.298 196.316 118.298C198.995 118.298 201.87 117.416 204.94 115.652C208.076 113.823 211.147 111.111 214.152 107.518C214.936 106.603 215.818 106.146 216.798 106.146C217.648 106.146 218.301 106.538 218.758 107.322C219.281 108.106 219.542 109.184 219.542 110.556C219.542 113.039 218.922 115.064 217.68 116.632C214.61 120.421 210.918 123.361 206.606 125.452C202.36 127.477 198.244 128.49 194.258 128.49ZM255.329 106.146C256.178 106.146 256.831 106.538 257.289 107.322C257.811 108.106 258.073 109.184 258.073 110.556C258.073 113.169 257.452 115.195 256.211 116.632C253.793 119.572 250.363 122.283 245.921 124.766C241.543 127.249 236.839 128.49 231.809 128.49C224.949 128.49 219.624 126.628 215.835 122.904C212.045 119.18 210.151 114.084 210.151 107.616C210.151 103.108 211.098 98.9267 212.993 95.072C214.887 91.152 217.501 88.0487 220.833 85.762C224.23 83.4753 228.052 82.332 232.299 82.332C236.088 82.332 239.126 83.4753 241.413 85.762C243.699 87.9833 244.843 91.0213 244.843 94.876C244.843 99.384 243.209 103.271 239.943 106.538C236.741 109.739 231.286 112.287 223.577 114.182C225.21 117.187 228.313 118.69 232.887 118.69C235.827 118.69 239.159 117.677 242.883 115.652C246.672 113.561 249.939 110.85 252.683 107.518C253.467 106.603 254.349 106.146 255.329 106.146ZM230.633 91.936C228.215 91.936 226.157 93.3407 224.459 96.15C222.825 98.9593 222.009 102.357 222.009 106.342V106.538C225.863 105.623 228.901 104.251 231.123 102.422C233.344 100.593 234.455 98.4693 234.455 96.052C234.455 94.8107 234.095 93.8307 233.377 93.112C232.723 92.328 231.809 91.936 230.633 91.936ZM268.321 130.646C264.924 130.646 262.311 129.862 260.481 128.294C258.717 126.726 257.835 124.962 257.835 123.002C257.835 121.303 258.456 119.833 259.697 118.592C260.939 117.351 262.768 116.73 265.185 116.73C266.035 116.73 267.015 116.828 268.125 117.024C269.301 117.155 270.183 117.253 270.771 117.318C270.706 115.619 270.314 114.019 269.595 112.516C268.942 111.013 268.093 109.576 267.047 108.204C266.002 106.767 265.022 105.525 264.107 104.48C262.082 108.335 260.057 111.536 258.031 114.084C256.071 116.632 253.915 119.049 251.563 121.336C250.387 122.512 249.146 123.1 247.839 123.1C246.794 123.1 245.945 122.741 245.291 122.022C244.638 121.238 244.311 120.291 244.311 119.18C244.311 117.873 244.769 116.665 245.683 115.554L246.957 113.986C250.551 109.543 253.262 105.885 255.091 103.01C256.267 101.115 257.443 98.8613 258.619 96.248C259.861 93.6347 261.461 90.074 263.421 85.566C264.663 82.6913 267.243 81.254 271.163 81.254C272.993 81.254 274.267 81.4173 274.985 81.744C275.704 82.0707 276.063 82.5933 276.063 83.312C276.063 83.704 275.933 84.3247 275.671 85.174C275.41 86.0233 275.051 86.8727 274.593 87.722C273.417 90.074 272.829 92.0667 272.829 93.7C272.829 94.68 273.156 95.758 273.809 96.934C274.528 98.11 275.606 99.58 277.043 101.344C279.134 104.088 280.702 106.44 281.747 108.4C282.858 110.295 283.413 112.385 283.413 114.672C283.413 117.416 282.76 120.029 281.453 122.512C280.212 124.929 278.448 126.889 276.161 128.392C273.875 129.895 271.261 130.646 268.321 130.646ZM370.261 106.146C371.11 106.146 371.764 106.538 372.221 107.322C372.744 108.106 373.005 109.184 373.005 110.556C373.005 113.169 372.384 115.195 371.143 116.632C368.464 119.899 365.524 122.708 362.323 125.06C359.122 127.347 355.953 128.49 352.817 128.49C347.852 128.49 344.062 125.583 341.449 119.768C338.705 123.231 336.288 125.55 334.197 126.726C332.172 127.902 329.787 128.49 327.043 128.49C323.058 128.49 319.758 127.02 317.145 124.08C314.597 121.075 313.323 117.187 313.323 112.418C313.323 107.191 314.434 102.357 316.655 97.914C318.876 93.406 321.914 89.7473 325.769 86.938C329.689 84.0633 334.066 82.3647 338.901 81.842C340.142 69.1673 342.494 58.3547 345.957 49.404C349.485 40.388 354.091 35.88 359.775 35.88C362.584 35.88 364.904 37.154 366.733 39.702C368.628 42.25 369.575 46.1047 369.575 51.266C369.575 58.5833 367.778 67.142 364.185 76.942C360.592 86.742 355.79 96.8033 349.779 107.126C350.04 110.915 350.596 113.627 351.445 115.26C352.36 116.893 353.503 117.71 354.875 117.71C356.639 117.71 358.436 116.926 360.265 115.358C362.094 113.79 364.544 111.177 367.615 107.518C368.399 106.603 369.281 106.146 370.261 106.146ZM358.697 45.484C357.456 45.484 356.214 47.7053 354.973 52.148C353.732 56.5253 352.654 62.2747 351.739 69.396C350.89 76.5173 350.269 83.9653 349.877 91.74C357.194 75.7987 360.853 62.9933 360.853 53.324C360.853 50.8413 360.624 48.914 360.167 47.542C359.775 46.17 359.285 45.484 358.697 45.484ZM330.473 118.592C331.714 118.592 332.956 118.102 334.197 117.122C335.438 116.077 337.006 114.182 338.901 111.438C338.248 107.91 337.921 103.957 337.921 99.58C337.921 98.012 337.986 95.464 338.117 91.936C334.524 93.0467 331.518 95.464 329.101 99.188C326.749 102.847 325.573 106.93 325.573 111.438C325.573 116.207 327.206 118.592 330.473 118.592ZM375.346 128.49C371.622 128.49 368.584 127.02 366.232 124.08C363.945 121.14 362.802 117.285 362.802 112.516C362.802 107.289 364.01 102.357 366.428 97.718C368.845 93.014 372.046 89.2573 376.032 86.448C380.082 83.5733 384.362 82.136 388.87 82.136C390.307 82.136 391.254 82.43 391.712 83.018C392.234 83.5407 392.659 84.5207 392.986 85.958C394.227 85.6967 395.599 85.566 397.102 85.566C398.67 85.566 399.878 85.958 400.728 86.742C401.577 87.526 402.002 88.6367 402.002 90.074C402.002 91.5767 401.675 94.19 401.022 97.914C400.303 101.899 399.748 105.721 399.356 109.38C398.964 112.973 398.768 117.024 398.768 121.532C398.768 124.015 398.245 125.811 397.2 126.922C396.22 127.967 394.586 128.49 392.3 128.49C390.078 128.49 388.412 127.967 387.302 126.922C386.256 125.811 385.734 124.047 385.734 121.63L385.832 120.062C383.806 125.681 380.311 128.49 375.346 128.49ZM379.168 118.592C380.997 118.592 382.663 117.318 384.166 114.77C385.668 112.222 387.008 107.681 388.184 101.148L390.046 91.25C387.367 91.3153 384.884 92.3607 382.598 94.386C380.311 96.346 378.482 98.9593 377.11 102.226C375.738 105.493 375.052 108.955 375.052 112.614C375.052 114.574 375.411 116.077 376.13 117.122C376.914 118.102 377.926 118.592 379.168 118.592Z" fill="#93562A"/>
</g>
<path d="M97.88 235.356C98.92 235.356 99.72 235.836 100.28 236.796C100.92 237.756 101.24 239.076 101.24 240.756C101.24 243.876 100.48 246.356 98.96 248.196C94.48 253.556 90.12 257.316 85.88 259.476C81.72 261.636 76.68 262.716 70.76 262.716C66.6 262.716 62.76 262.196 59.24 261.156C55.72 260.116 51.44 258.556 46.4 256.476C41.84 254.476 37.44 252.836 33.2 251.556C29.12 258.996 23 262.716 14.84 262.716C10.36 262.716 6.8 261.716 4.16 259.716C1.44 257.636 0.0799999 254.996 0.0799999 251.796C0.0799999 247.876 1.96 244.636 5.72 242.076C9.48 239.436 14.48 238.116 20.72 238.116H22.28L24.44 203.196C24.92 195.196 26.36 188.596 28.76 183.396C31.16 178.196 34.48 173.756 38.72 170.076C42.4 166.876 46.6 164.476 51.32 162.876C56.04 161.196 61.04 160.356 66.32 160.356C74.96 160.356 81.6 162.596 86.24 167.076C90.88 171.556 93.2 177.396 93.2 184.596C93.2 189.476 92.32 193.436 90.56 196.476C88.8 199.436 86.36 200.916 83.24 200.916C81 200.916 79.24 200.396 77.96 199.356C76.68 198.236 76.04 196.676 76.04 194.676C76.04 193.956 76.2 192.636 76.52 190.716C77 188.476 77.24 186.476 77.24 184.716C77.24 181.356 76.24 178.716 74.24 176.796C72.32 174.796 69.36 173.796 65.36 173.796C58.32 173.796 52.88 176.116 49.04 180.756C45.2 185.316 42.76 192.516 41.72 202.356L38.96 229.596C38.56 233.436 38.04 236.756 37.4 239.556C42.52 240.436 48.92 241.836 56.6 243.756C61.08 244.876 64.52 245.676 66.92 246.156C69.32 246.636 71.44 246.876 73.28 246.876C77.92 246.876 81.88 246.116 85.16 244.596C88.52 242.996 91.68 240.476 94.64 237.036C95.6 235.916 96.68 235.356 97.88 235.356ZM162.312 225.276C163.352 225.276 164.152 225.796 164.712 226.836C165.272 227.876 165.552 229.196 165.552 230.796C165.552 234.636 164.392 236.916 162.072 237.636C157.272 239.316 151.992 240.276 146.232 240.516C144.712 247.236 141.712 252.636 137.232 256.716C132.752 260.716 127.672 262.716 121.992 262.716C117.192 262.716 113.072 261.556 109.632 259.236C106.272 256.916 103.712 253.836 101.952 249.996C100.192 246.156 99.3116 241.996 99.3116 237.516C99.3116 231.436 100.472 226.036 102.792 221.316C105.112 216.516 108.312 212.796 112.392 210.156C116.472 207.436 120.992 206.076 125.952 206.076C132.032 206.076 136.912 208.196 140.592 212.436C144.352 216.596 146.552 221.756 147.192 227.916C150.952 227.676 155.432 226.876 160.632 225.516C161.272 225.356 161.832 225.276 162.312 225.276ZM122.952 249.996C125.512 249.996 127.712 248.956 129.552 246.876C131.472 244.796 132.752 241.796 133.392 237.876C130.912 236.196 128.992 233.996 127.632 231.276C126.352 228.556 125.712 225.676 125.712 222.636C125.712 221.356 125.832 220.076 126.072 218.796H125.472C122.272 218.796 119.592 220.356 117.432 223.476C115.352 226.516 114.312 230.836 114.312 236.436C114.312 240.836 115.152 244.196 116.832 246.516C118.592 248.836 120.632 249.996 122.952 249.996ZM167.492 262.716C163.892 262.716 160.932 261.076 158.612 257.796C156.372 254.436 155.252 250.276 155.252 245.316C155.252 239.316 155.652 233.836 156.452 228.876C157.252 223.836 158.572 218.516 160.412 212.916C161.212 210.516 162.332 208.796 163.772 207.756C165.212 206.716 167.492 206.196 170.612 206.196C172.372 206.196 173.572 206.476 174.212 207.036C174.932 207.596 175.292 208.436 175.292 209.556C175.292 210.196 174.852 212.356 173.972 216.036C173.172 218.996 172.532 221.676 172.052 224.076C170.452 232.476 169.652 238.076 169.652 240.876C169.652 242.556 169.852 243.756 170.252 244.476C170.652 245.116 171.292 245.436 172.172 245.436C173.372 245.436 174.852 244.236 176.612 241.836C178.452 239.436 180.372 235.796 182.372 230.916C184.452 226.036 186.452 220.036 188.372 212.916C189.012 210.516 189.972 208.796 191.252 207.756C192.612 206.716 194.612 206.196 197.252 206.196C199.092 206.196 200.372 206.436 201.092 206.916C201.812 207.316 202.172 208.116 202.172 209.316C202.172 211.316 201.172 216.796 199.172 225.756C196.932 235.996 195.812 242.316 195.812 244.716C195.812 246.236 196.132 247.436 196.772 248.316C197.412 249.116 198.252 249.516 199.292 249.516C200.892 249.516 202.772 248.556 204.932 246.636C207.172 244.636 210.132 241.436 213.812 237.036C214.772 235.916 215.852 235.356 217.052 235.356C218.092 235.356 218.892 235.836 219.452 236.796C220.092 237.756 220.412 239.076 220.412 240.756C220.412 243.956 219.652 246.436 218.132 248.196C214.692 252.436 210.972 255.916 206.972 258.636C203.052 261.356 198.572 262.716 193.532 262.716C189.692 262.716 186.852 261.236 185.012 258.276C183.252 255.316 182.372 251.156 182.372 245.796C181.012 251.236 178.972 255.436 176.252 258.396C173.532 261.276 170.612 262.716 167.492 262.716ZM219.202 262.716C216.162 262.716 214.002 261.116 212.722 257.916C211.522 254.716 210.922 249.596 210.922 242.556C210.922 232.156 212.402 222.276 215.362 212.916C216.082 210.596 217.242 208.916 218.842 207.876C220.522 206.756 222.842 206.196 225.802 206.196C227.402 206.196 228.522 206.396 229.162 206.796C229.802 207.196 230.122 207.956 230.122 209.076C230.122 210.356 229.522 213.236 228.322 217.716C227.522 220.916 226.882 223.716 226.402 226.116C225.922 228.516 225.522 231.476 225.202 234.996C227.842 228.116 230.802 222.516 234.082 218.196C237.362 213.876 240.562 210.796 243.682 208.956C246.882 207.116 249.802 206.196 252.442 206.196C257.642 206.196 260.242 208.796 260.242 213.996C260.242 215.036 259.882 217.556 259.162 221.556C258.522 224.756 258.202 226.756 258.202 227.556C258.202 230.356 259.202 231.756 261.202 231.756C263.442 231.756 266.322 229.996 269.842 226.476C270.882 225.436 271.962 224.916 273.082 224.916C274.122 224.916 274.922 225.396 275.482 226.356C276.122 227.236 276.442 228.436 276.442 229.956C276.442 232.916 275.642 235.236 274.042 236.916C271.802 239.236 269.162 241.236 266.122 242.916C263.162 244.516 260.002 245.316 256.642 245.316C252.402 245.316 249.162 244.236 246.922 242.076C244.762 239.916 243.682 236.996 243.682 233.316C243.682 232.116 243.802 230.916 244.042 229.716C244.202 228.116 244.282 227.036 244.282 226.476C244.282 225.196 243.842 224.556 242.962 224.556C241.762 224.556 240.162 225.916 238.162 228.636C236.242 231.276 234.322 234.796 232.402 239.196C230.482 243.596 228.922 248.236 227.722 253.116C226.842 256.876 225.802 259.436 224.602 260.796C223.482 262.076 221.682 262.716 219.202 262.716ZM333.451 235.356C334.491 235.356 335.291 235.836 335.851 236.796C336.491 237.756 336.811 239.076 336.811 240.756C336.811 243.956 336.051 246.436 334.531 248.196C331.251 252.196 327.651 255.636 323.731 258.516C319.811 261.316 315.931 262.716 312.091 262.716C306.011 262.716 301.371 259.156 298.171 252.036C294.811 256.276 291.851 259.116 289.291 260.556C286.811 261.996 283.891 262.716 280.531 262.716C275.651 262.716 271.611 260.916 268.411 257.316C265.291 253.636 263.731 248.876 263.731 243.036C263.731 236.636 265.091 230.716 267.811 225.276C270.531 219.756 274.251 215.276 278.971 211.836C283.771 208.316 289.131 206.236 295.051 205.596C296.571 190.076 299.451 176.836 303.691 165.876C308.011 154.836 313.651 149.316 320.611 149.316C324.051 149.316 326.891 150.876 329.131 153.996C331.451 157.116 332.611 161.836 332.611 168.156C332.611 177.116 330.411 187.596 326.011 199.596C321.611 211.596 315.731 223.916 308.371 236.556C308.691 241.196 309.371 244.516 310.411 246.516C311.531 248.516 312.931 249.516 314.611 249.516C316.771 249.516 318.971 248.556 321.211 246.636C323.451 244.716 326.451 241.516 330.211 237.036C331.171 235.916 332.251 235.356 333.451 235.356ZM319.291 161.076C317.771 161.076 316.251 163.796 314.731 169.236C313.211 174.596 311.891 181.636 310.771 190.356C309.731 199.076 308.971 208.196 308.491 217.716C317.451 198.196 321.931 182.516 321.931 170.676C321.931 167.636 321.651 165.276 321.091 163.596C320.611 161.916 320.011 161.076 319.291 161.076ZM284.731 250.596C286.251 250.596 287.771 249.996 289.291 248.796C290.811 247.516 292.731 245.196 295.051 241.836C294.251 237.516 293.851 232.676 293.851 227.316C293.851 225.396 293.931 222.276 294.091 217.956C289.691 219.316 286.011 222.276 283.051 226.836C280.171 231.316 278.731 236.316 278.731 241.836C278.731 247.676 280.731 250.596 284.731 250.596ZM380.569 235.356C381.609 235.356 382.409 235.836 382.969 236.796C383.609 237.756 383.929 239.076 383.929 240.756C383.929 243.956 383.169 246.436 381.649 248.196C378.689 251.796 374.489 255.116 369.049 258.156C363.689 261.196 357.929 262.716 351.769 262.716C343.369 262.716 336.849 260.436 332.209 255.876C327.569 251.316 325.249 245.076 325.249 237.156C325.249 231.636 326.409 226.516 328.729 221.796C331.049 216.996 334.249 213.196 338.329 210.396C342.489 207.596 347.169 206.196 352.369 206.196C357.009 206.196 360.729 207.596 363.529 210.396C366.329 213.116 367.729 216.836 367.729 221.556C367.729 227.076 365.729 231.836 361.729 235.836C357.809 239.756 351.129 242.876 341.689 245.196C343.689 248.876 347.489 250.716 353.089 250.716C356.689 250.716 360.769 249.476 365.329 246.996C369.969 244.436 373.969 241.116 377.329 237.036C378.289 235.916 379.369 235.356 380.569 235.356ZM350.329 217.956C347.369 217.956 344.849 219.676 342.769 223.116C340.769 226.556 339.769 230.716 339.769 235.596V235.836C344.489 234.716 348.209 233.036 350.929 230.796C353.649 228.556 355.009 225.956 355.009 222.996C355.009 221.476 354.569 220.276 353.689 219.396C352.889 218.436 351.769 217.956 350.329 217.956ZM396.478 265.356C392.318 265.356 389.118 264.396 386.878 262.476C384.718 260.556 383.638 258.396 383.638 255.996C383.638 253.916 384.398 252.116 385.918 250.596C387.438 249.076 389.678 248.316 392.638 248.316C393.678 248.316 394.878 248.436 396.238 248.676C397.678 248.836 398.758 248.956 399.478 249.036C399.398 246.956 398.918 244.996 398.038 243.156C397.238 241.316 396.198 239.556 394.918 237.876C393.638 236.116 392.438 234.596 391.318 233.316C388.838 238.036 386.358 241.956 383.878 245.076C381.478 248.196 378.838 251.156 375.958 253.956C374.518 255.396 372.998 256.116 371.398 256.116C370.118 256.116 369.078 255.676 368.278 254.796C367.478 253.836 367.078 252.676 367.078 251.316C367.078 249.716 367.638 248.236 368.758 246.876L370.318 244.956C374.718 239.516 378.038 235.036 380.278 231.516C381.718 229.196 383.158 226.436 384.598 223.236C386.118 220.036 388.078 215.676 390.478 210.156C391.998 206.636 395.158 204.876 399.958 204.876C402.198 204.876 403.758 205.076 404.638 205.476C405.518 205.876 405.958 206.516 405.958 207.396C405.958 207.876 405.798 208.636 405.478 209.676C405.158 210.716 404.718 211.756 404.158 212.796C402.718 215.676 401.998 218.116 401.998 220.116C401.998 221.316 402.398 222.636 403.198 224.076C404.078 225.516 405.398 227.316 407.158 229.476C409.718 232.836 411.638 235.716 412.918 238.116C414.278 240.436 414.958 242.996 414.958 245.796C414.958 249.156 414.158 252.356 412.558 255.396C411.038 258.356 408.878 260.756 406.078 262.596C403.278 264.436 400.078 265.356 396.478 265.356Z" fill="#EB5151"/>
<defs>
<filter id="filter0_d_18_106" x="45.1097" y="35.88" width="360.892" height="102.766" filterUnits="userSpaceOnUse" color-interpolation-filters="sRGB">
<feFlood flood-opacity="0" result="BackgroundImageFix"/>
<feColorMatrix in="SourceAlpha" type="matrix" values="0 0 0 0 0 0 0 0 0 0 0 0 0 0 0 0 0 0 127 0" result="hardAlpha"/>
<feOffset dy="4"/>
<feGaussianBlur stdDeviation="2"/>
<feComposite in2="hardAlpha" operator="out"/>
<feColorMatrix type="matrix" values="0 0 0 0 0 0 0 0 0 0 0 0 0 0 0 0 0 0 0.25 0"/>
<feBlend mode="normal" in2="BackgroundImageFix" result="effect1_dropShadow_18_106"/>
<feBlend mode="normal" in="SourceGraphic" in2="effect1_dropShadow_18_106" result="shape"/>
</filter>
</defs>
</svg>
